<?xml version="1.0" encoding="UTF-8"?>
<svg version="1.1" xmlns="http://www.w3.org/2000/svg" width="512" height="512">
<path d="M0 0 C1.43883545 0.30599121 1.43883545 0.30599121 2.90673828 0.61816406 C40.04273686 8.74443609 74.19490909 25.11983286 103 50 C103.91007812 50.77988281 104.82015625 51.55976562 105.7578125 52.36328125 C108.22066132 54.52916276 110.61995399 56.74344694 113 59 C113.49564453 59.46841309 113.99128906 59.93682617 114.50195312 60.41943359 C122.84733145 68.36173927 130.13206378 76.76105198 137 86 C137.4237793 86.55768066 137.84755859 87.11536133 138.28417969 87.68994141 C145.5421633 97.24916887 151.47749079 107.35342137 157 118 C157.39074707 118.74878418 157.78149414 119.49756836 158.18408203 120.26904297 C168.50401897 140.29829531 175.24505349 161.79976608 179 184 C179.18618896 185.06839111 179.37237793 186.13678223 179.56420898 187.23754883 C181.43813445 199.71844237 181.33732353 212.23602195 181.31567383 224.83374023 C181.3125208 228.66223844 181.33602003 232.4899565 181.36132812 236.31835938 C181.39929356 250.80504209 180.68552288 264.75343572 178 279 C177.67140991 280.76984253 177.67140991 280.76984253 177.33618164 282.57543945 C176.74489794 285.50738466 176.08777944 288.40789845 175.375 291.3125 C175.12266602 292.34463623 174.87033203 293.37677246 174.61035156 294.44018555 C162.75415494 340.86755718 134.33211662 384.94726776 96 414 C95.3611084 414.48823242 94.7222168 414.97646484 94.06396484 415.47949219 C83.23279457 423.70728027 72.11934648 430.82457112 60 437 C58.94280762 437.53898926 58.94280762 437.53898926 57.86425781 438.08886719 C43.01189771 445.559804 27.77643758 451.28451262 11.625 455.25 C10.21154297 455.60118896 10.21154297 455.60118896 8.76953125 455.95947266 C-8.85844383 460.07443672 -26.29328455 461.44830427 -44.34472656 461.40405273 C-46.49083304 461.4097732 -48.63693649 461.41674384 -50.78303528 461.42485046 C-56.54052176 461.44259632 -62.29785437 461.44165088 -68.05535984 461.43590808 C-72.87959832 461.43279398 -77.70380818 461.43893203 -82.52804255 461.44494683 C-93.90429928 461.45892461 -105.28048077 461.4574828 -116.65673828 461.44604492 C-128.37285125 461.43452545 -140.08873633 461.44871892 -151.80481935 461.4754414 C-161.89958369 461.49759918 -171.99427647 461.5042369 -182.08906341 461.49836498 C-188.10356231 461.49499986 -194.11791458 461.49738325 -200.13239288 461.51461601 C-205.77647141 461.53008794 -211.4202106 461.52612665 -217.06427574 461.50731087 C-219.1310361 461.50362806 -221.19782168 461.50672441 -223.26455879 461.51719666 C-226.09173999 461.53042685 -228.91780041 461.51884182 -231.74493408 461.50120544 C-232.55651167 461.51081045 -233.36808926 461.52041546 -234.20426011 461.53031152 C-243.32276132 461.41376054 -251.44712098 457.2598641 -258 451 C-264.78817021 442.79540057 -267.30583041 436.03825001 -267.26069641 425.49827576 C-267.26452196 424.54833129 -267.26834751 423.59838681 -267.27228898 422.61965615 C-267.28259897 419.43965896 -267.27863041 416.25984303 -267.2746582 413.07983398 C-267.27900617 410.79777866 -267.2841896 408.51572479 -267.29014587 406.2336731 C-267.30354805 400.03238649 -267.30411244 393.83116081 -267.30158257 387.62986255 C-267.30051222 382.44217059 -267.30539867 377.25449093 -267.310188 372.06680161 C-267.32192548 359.10965199 -267.32105608 346.1525411 -267.31463119 333.19538981 C-267.30947966 321.98726658 -267.32067038 310.77923074 -267.33972941 299.57112478 C-267.35919824 288.03226551 -267.36705713 276.49345769 -267.36360615 264.95458084 C-267.36180215 258.48901676 -267.36433932 252.02353241 -267.37832069 245.55798149 C-267.39100825 239.46187615 -267.3888528 233.3659433 -267.37590981 227.26984024 C-267.37356686 225.04848863 -267.37619533 222.82712448 -267.38453293 220.60578728 C-267.44827609 202.28136024 -265.75133612 184.52122532 -261.375 166.6875 C-261.12266602 165.65536377 -260.87033203 164.62322754 -260.61035156 163.55981445 C-248.75415494 117.13244282 -220.33211662 73.05273224 -182 44 C-181.3611084 43.51176758 -180.7222168 43.02353516 -180.06396484 42.52050781 C-169.23279457 34.29271973 -158.11934648 27.17542888 -146 21 C-145.29520508 20.64067383 -144.59041016 20.28134766 -143.86425781 19.91113281 C-124.99292005 10.4185962 -105.6587829 4.31798236 -85 0 C-84.17999512 -0.18079102 -83.35999023 -0.36158203 -82.51513672 -0.54785156 C-56.85414484 -6.02757091 -25.5958949 -5.53025112 0 0 Z " fill="#324E88" transform="translate(299,35)"/>
<path d="M0 0 C4.87640331 4.10553316 8.72435255 9.77449697 9.47265625 16.19921875 C9.77596935 24.3070112 8.06438631 30.68442873 2.44921875 36.73828125 C-2.92857783 41.52498381 -6.62183387 43.11224482 -13.953125 42.90625 C-15.38475521 42.88091471 -16.81639643 42.85619607 -18.24804688 42.83203125 C-20.47928265 42.78289687 -22.70992327 42.72742383 -24.94067383 42.65966797 C-42.0520935 42.1734502 -57.28811347 46.24821476 -70.21875 58.140625 C-81.49919464 70.34021698 -86.1154365 84.42239166 -86.1015625 100.7265625 C-86.10799019 102.41241455 -86.10799019 102.41241455 -86.11454773 104.13232422 C-86.1202685 106.49901661 -86.12080799 108.86572657 -86.11645508 111.23242188 C-86.11329126 114.84014996 -86.136797 118.44706034 -86.16210938 122.0546875 C-86.1643823 124.36197814 -86.1650859 126.66927097 -86.1640625 128.9765625 C-86.17787712 130.58313721 -86.17787712 130.58313721 -86.19197083 132.22216797 C-86.15378999 138.4417239 -85.81097219 143.337037 -82.80078125 148.8515625 C-78.46754241 152.80464595 -73.98373998 153.34051121 -68.21484375 153.3203125 C-67.16301407 153.33088684 -67.16301407 153.33088684 -66.0899353 153.3416748 C-63.12453239 153.37085933 -60.15980911 153.35461426 -57.19433594 153.34228516 C-47.25590872 153.33132527 -39.06036237 153.54826886 -31.05078125 160.1015625 C-30.30828125 161.0090625 -29.56578125 161.9165625 -28.80078125 162.8515625 C-28.33542969 163.38136719 -27.87007812 163.91117188 -27.390625 164.45703125 C-22.64294368 170.65943386 -22.8959873 177.33746418 -23.80078125 184.8515625 C-25.53266409 192.16634717 -29.83306175 196.51140286 -35.80078125 200.8515625 C-38.59112386 202.2467338 -40.87304097 201.97111412 -43.99462891 201.96508789 C-45.29582672 201.96501236 -46.59702454 201.96493683 -47.93765259 201.96485901 C-49.36338336 201.95975197 -50.78911375 201.95453597 -52.21484375 201.94921875 C-53.66930086 201.94735397 -55.12375859 201.94593035 -56.57821655 201.94493103 C-60.40870901 201.94111055 -64.23916362 201.93128426 -68.06964111 201.92022705 C-71.97741178 201.91000285 -75.88518856 201.90543124 -79.79296875 201.90039062 C-87.46225685 201.88966158 -95.13151375 201.87259078 -102.80078125 201.8515625 C-102.78967819 202.67158752 -102.77857513 203.49161255 -102.76713562 204.33648682 C-102.66590942 212.15919332 -102.59030629 219.98157133 -102.54172039 227.80476761 C-102.51590001 231.82439931 -102.48102493 235.84347891 -102.42358398 239.86279297 C-101.94059229 274.59213816 -101.94059229 274.59213816 -107.80078125 290.8515625 C-108.0790123 291.63190857 -108.35724335 292.41225464 -108.64390564 293.21624756 C-117.94247372 318.88662131 -136.40378865 339.52831231 -160.80078125 351.8515625 C-165.99485917 354.2817471 -171.32119354 356.17616758 -176.80078125 357.8515625 C-177.47915039 358.06184082 -178.15751953 358.27211914 -178.85644531 358.48876953 C-194.96429041 363.27114103 -216.96545309 365.56669414 -232.80078125 358.8515625 C-240.57958573 354.48248658 -244.04796178 349.1100209 -246.80078125 340.8515625 C-247.70442548 332.97694849 -246.71266771 327.16333661 -241.80078125 320.8515625 C-237.75262339 316.64075544 -233.68209288 312.98719847 -227.66308594 312.70385742 C-226.44524414 312.74615479 -225.22740234 312.78845215 -223.97265625 312.83203125 C-222.60900616 312.86668458 -221.24531493 312.89974766 -219.8815918 312.93139648 C-219.17336273 312.95015839 -218.46513367 312.96892029 -217.73544312 312.98825073 C-200.09234977 313.39860108 -186.43349716 311.80771663 -171.80078125 300.8515625 C-170.970625 300.24699219 -170.14046875 299.64242188 -169.28515625 299.01953125 C-161.97880303 292.64370415 -156.57145585 283.08235921 -153.80078125 273.8515625 C-153.46216064 272.72991699 -153.12354004 271.60827148 -152.7746582 270.45263672 C-151.40752501 264.9137607 -151.47637268 259.40028971 -151.46484375 253.72265625 C-151.45818695 252.57418716 -151.45153015 251.42571808 -151.44467163 250.2424469 C-151.43458521 247.82448927 -151.42985336 245.40650403 -151.43017578 242.98852539 C-151.42579094 239.29722362 -151.38939465 235.60710719 -151.3515625 231.91601562 C-151.34569581 229.5598999 -151.34172543 227.20377853 -151.33984375 224.84765625 C-151.32547272 223.74957138 -151.31110168 222.65148651 -151.29629517 221.52012634 C-151.33442444 215.10819888 -151.73918175 210.93722605 -155.80078125 205.8515625 C-160.55453613 202.48989294 -164.88478905 202.43630781 -170.48828125 202.48046875 C-172.17317917 202.46309174 -173.85807496 202.4455073 -175.54296875 202.42773438 C-178.17614612 202.41765969 -180.80918695 202.41406794 -183.44238281 202.41577148 C-185.9997557 202.41219174 -188.55609346 202.38482294 -191.11328125 202.35546875 C-192.28540161 202.36774254 -192.28540161 202.36774254 -193.48120117 202.38026428 C-199.58060961 202.297655 -203.08820381 200.3868473 -207.59375 196.17578125 C-212.98217186 189.85155503 -215.49132171 184.09522225 -215.203125 175.69140625 C-214.18182805 168.48283455 -210.91433763 163.38739103 -205.30078125 158.8515625 C-200.19856891 155.11473093 -195.98043098 153.59823062 -189.63354492 153.62451172 C-188.41265671 153.62466278 -187.19176849 153.62481384 -185.93388367 153.62496948 C-183.9711425 153.64045334 -183.9711425 153.64045334 -181.96875 153.65625 C-180.60826323 153.65998328 -179.24777375 153.66282877 -177.88728333 153.66482544 C-174.31817108 153.67243712 -170.74922334 153.69206416 -167.18017578 153.7142334 C-163.53355128 153.73474515 -159.88690002 153.74383852 -156.24023438 153.75390625 C-149.09368298 153.77531259 -141.94724289 153.80941853 -134.80078125 153.8515625 C-134.81188431 153.03375809 -134.82298737 152.21595367 -134.83442688 151.37336731 C-134.93572077 143.56568856 -135.01128922 135.75834006 -135.05984211 127.95016956 C-135.08564506 123.93841232 -135.12048579 119.92720965 -135.17797852 115.91577148 C-135.68603202 79.48623667 -129.84023223 49.63706541 -103.53515625 22.515625 C-79.53658145 -0.13203664 -30.79377271 -20.13248264 0 0 Z " fill="#FEFEFE" transform="translate(358.80078125,86.1484375)"/>
<path d="M0 0 C21.31116377 2.85881465 41.9112967 18.4986322 54.9375 35 C66.26299975 49.89748192 73.1131411 65.58011669 76 84 C76.13148438 84.76183594 76.26296875 85.52367187 76.3984375 86.30859375 C80.15274316 112.33506406 73.30312901 139.67063882 58 161 C55.77226988 163.72754137 53.48527765 166.31583194 51.04296875 168.8515625 C48.94705353 170.97814285 48.94705353 170.97814285 47.13671875 173.44140625 C35.01366988 187.95803698 16.67779472 195.85562405 -1 201 C-2.09957031 201.34160156 -3.19914062 201.68320312 -4.33203125 202.03515625 C-14.09787272 204.73047835 -23.96081624 204.27024722 -34 204 C-33.24074219 203.40960938 -32.48148437 202.81921875 -31.69921875 202.2109375 C-29.52263332 200.42809039 -27.65715807 198.73176766 -25.8125 196.625 C-25.32394531 196.08101562 -24.83539063 195.53703125 -24.33203125 194.9765625 C-19.94180154 188.46202809 -20.08064761 180.52875064 -21 173 C-23.43108723 166.002536 -27.35542681 162.03993966 -33.94921875 158.83984375 C-38.24328033 157.08132329 -41.59608979 156.8763996 -46.23046875 156.859375 C-47.68816653 156.84103645 -49.14584923 156.82146517 -50.60351562 156.80078125 C-52.88998744 156.77192216 -55.17549296 156.75000258 -57.4621582 156.74951172 C-72.63275988 156.7264736 -72.63275988 156.7264736 -78.5480957 152.84863281 C-83.58365688 146.43711957 -83.45520711 139.07080172 -83.43359375 131.30078125 C-83.4388356 130.18873825 -83.44407745 129.07669525 -83.44947815 127.93095398 C-83.45587908 125.58524405 -83.45458647 123.23950194 -83.44604492 120.89379883 C-83.43756732 117.34071303 -83.46627374 113.78925417 -83.49804688 110.23632812 C-83.56854606 87.98091131 -83.56854606 87.98091131 -79 78 C-78.70697998 77.34588135 -78.41395996 76.6917627 -78.11206055 76.01782227 C-70.18919387 59.97701387 -57.18762303 50.71310239 -40.58984375 44.78125 C-33.16700073 43.06897367 -24.91216587 44.02682808 -17.33862305 44.34277344 C-5.8163525 44.81389489 -5.8163525 44.81389489 4.32055664 39.71264648 C9.29985118 34.63490972 12.10831802 29.06611449 12.375 21.9375 C12.30104904 15.73383642 10.65225205 11.01732645 7 6 C4.76274676 3.98924554 2.58707789 2.57253754 0 1 C0 0.67 0 0.34 0 0 Z " fill="#324E89" transform="translate(355,84)"/>
<path d="M0 0 C-1.67050121 1.11366747 -3.35527196 2.20890523 -5.0859375 3.2265625 C-11.70596632 7.27088045 -15.53538852 11.60616556 -18 19 C-18.94015483 27.07190073 -17.69927333 33.31347178 -13 40 C-9.22422614 43.98643935 -6.0292412 46.9287598 -0.41162109 47.12597656 C1.13442707 47.13398597 2.68049488 47.13862929 4.2265625 47.140625 C5.91537794 47.15896481 7.60418037 47.1785362 9.29296875 47.19921875 C11.95253249 47.22808982 14.6112659 47.24999747 17.27099609 47.25048828 C19.84026549 47.25384555 22.40762728 47.28853894 24.9765625 47.328125 C25.76020172 47.3210553 26.54384094 47.3139856 27.35122681 47.30670166 C33.30304708 47.4363259 37.48094433 49.07578192 42 53 C46.0001878 58.24999871 45.46756689 64.28417082 45.46875 70.6171875 C45.47636353 71.74714142 45.48397705 72.87709534 45.49182129 74.04129028 C45.50261311 76.43342894 45.50547915 78.82561468 45.50097656 81.21777344 C45.50001247 84.8283061 45.54147664 88.43665337 45.5859375 92.046875 C45.69337755 112.61435172 42.67883618 129.46598473 28 145 C21.03699201 150.6397627 13.63172188 155.40914102 5 158 C3.91203125 158.36738281 2.8240625 158.73476563 1.703125 159.11328125 C-5.61168887 160.91102593 -13.60200521 159.98010873 -21.08862305 159.65722656 C-29.13149728 159.32995908 -35.66795992 159.16697734 -42.30297852 164.28125 C-46.96464985 169.00260897 -50.13508311 174.42337333 -50.3125 181.0625 C-50.23672926 188.28913466 -48.23862916 193.48836728 -43.4375 198.875 C-42.633125 199.57625 -41.82875 200.2775 -41 201 C-40 202 -39 203 -38 204 C-45.52513087 203.19643703 -51.29607508 200.34804204 -58 197 C-59.45212891 196.28263672 -59.45212891 196.28263672 -60.93359375 195.55078125 C-67.62576053 192.08604242 -73.27206582 187.8725883 -79 183 C-79.66515625 182.48050781 -80.3303125 181.96101562 -81.015625 181.42578125 C-100.738952 165.51082024 -111.9833784 139.72276096 -115 115 C-115.836273 103.94028962 -115.35951722 92.84835504 -113 82 C-112.75507812 80.824375 -112.51015625 79.64875 -112.2578125 78.4375 C-105.81132199 51.05417747 -87.598846 29.03229418 -64.2890625 13.9140625 C-43.787384 1.98315696 -23.29640297 -0.2204172 0 0 Z " fill="#324E89" transform="translate(163,240)"/>
<path d="M0 0 C21.31116377 2.85881465 41.9112967 18.4986322 54.9375 35 C66.26299975 49.89748192 73.1131411 65.58011669 76 84 C76.13148438 84.76183594 76.26296875 85.52367187 76.3984375 86.30859375 C80.15274316 112.33506406 73.30312901 139.67063882 58 161 C55.77226988 163.72754137 53.48527765 166.31583194 51.04296875 168.8515625 C48.94705353 170.97814285 48.94705353 170.97814285 47.13671875 173.44140625 C35.01366988 187.95803698 16.67779472 195.85562405 -1 201 C-2.09957031 201.34160156 -3.19914062 201.68320312 -4.33203125 202.03515625 C-14.09787272 204.73047835 -23.96081624 204.27024722 -34 204 C-32.86111328 203.11441406 -32.86111328 203.11441406 -31.69921875 202.2109375 C-29.52263332 200.42809039 -27.65715807 198.73176766 -25.8125 196.625 C-25.32394531 196.08101562 -24.83539063 195.53703125 -24.33203125 194.9765625 C-19.94180154 188.46202809 -20.08064761 180.52875064 -21 173 C-23.08831913 166.98913466 -26.14634823 163.1236885 -31.6875 160 C-33.12169409 159.32625079 -34.5588773 158.65879895 -36 158 C-36.99 157.34 -37.98 156.68 -39 156 C-37.741875 155.98582031 -36.48375 155.97164062 -35.1875 155.95703125 C-19.59833486 155.59737547 -5.97916957 153.26013829 7 144 C8.03125 143.278125 9.0625 142.55625 10.125 141.8125 C20.08444956 132.95338622 26.77355734 119.20990248 28.22119141 105.97827148 C29.13415152 89.89657626 25.0663804 75.39666868 14.75 62.75 C6.98643135 54.40629655 -4.40631766 46.75610972 -16 46 C-16 45.67 -16 45.34 -16 45 C-15.16597656 44.99742187 -14.33195312 44.99484375 -13.47265625 44.9921875 C-5.48323696 44.71763701 0.15201201 43.67742168 6 38 C11.40648669 31.11192802 12.98938304 24.6997474 12 16 C9.73704279 8.80521676 6.36099559 4.86648752 0 1 C0 0.67 0 0.34 0 0 Z " fill="#5B71A1" transform="translate(355,84)"/>
<path d="M0 0 C-1.67050121 1.11366747 -3.35527196 2.20890523 -5.0859375 3.2265625 C-11.70596632 7.27088045 -15.53538852 11.60616556 -18 19 C-18.93967125 27.06774891 -17.70363866 33.31896101 -13 40 C-10.82305838 42.25635795 -8.5080011 44.1300546 -6 46 C-5.34 46.66 -4.68 47.32 -4 48 C-5.00417969 48.02578125 -6.00835937 48.0515625 -7.04296875 48.078125 C-23.91147767 48.69827552 -40.11920826 53.2867961 -52 66 C-62.62034835 78.94839966 -67.59035074 93.28541377 -66 110 C-63.86834432 124.47066257 -58.02370241 137.65844549 -46.5 147 C-40.79317276 151.11422429 -34.32581116 153.97732176 -28 157 C-26.66494847 157.66321915 -25.33068789 158.32806849 -24 159 C-24.68964844 159.00257813 -25.37929687 159.00515625 -26.08984375 159.0078125 C-33.48800798 159.3122637 -38.54134691 160.88114258 -44 166 C-49.31286895 172.8508047 -50.82237847 178.35360417 -50 187 C-48.33999131 192.89122649 -45.63211965 196.96174185 -41 201 C-40 202 -39 203 -38 204 C-45.52513087 203.19643703 -51.29607508 200.34804204 -58 197 C-59.45212891 196.28263672 -59.45212891 196.28263672 -60.93359375 195.55078125 C-67.62576053 192.08604242 -73.27206582 187.8725883 -79 183 C-79.66515625 182.48050781 -80.3303125 181.96101562 -81.015625 181.42578125 C-100.738952 165.51082024 -111.9833784 139.72276096 -115 115 C-115.836273 103.94028962 -115.35951722 92.84835504 -113 82 C-112.75507812 80.824375 -112.51015625 79.64875 -112.2578125 78.4375 C-105.81132199 51.05417747 -87.598846 29.03229418 -64.2890625 13.9140625 C-43.787384 1.98315696 -23.29640297 -0.2204172 0 0 Z " fill="#5A70A0" transform="translate(163,240)"/>
<path d="M0 0 C1.43883545 0.30599121 1.43883545 0.30599121 2.90673828 0.61816406 C40.04273686 8.74443609 74.19490909 25.11983286 103 50 C103.91007812 50.77988281 104.82015625 51.55976562 105.7578125 52.36328125 C108.22066132 54.52916276 110.61995399 56.74344694 113 59 C113.49564453 59.46841309 113.99128906 59.93682617 114.50195312 60.41943359 C122.84733145 68.36173927 130.13206378 76.76105198 137 86 C137.4237793 86.55768066 137.84755859 87.11536133 138.28417969 87.68994141 C145.5421633 97.24916887 151.47749079 107.35342137 157 118 C157.39074707 118.74878418 157.78149414 119.49756836 158.18408203 120.26904297 C168.55524896 140.39772407 174.9629319 161.76806024 179 184 C179.13132324 184.70463379 179.26264648 185.40926758 179.39794922 186.13525391 C181.7506047 199.2909866 181.19804496 212.6913786 181 226 C180.67 226 180.34 226 180 226 C179.90295776 225.00709961 179.90295776 225.00709961 179.80395508 223.99414062 C174.18866289 167.9665386 153.94900705 119.92946503 115 79 C114.27683594 78.22398438 113.55367188 77.44796875 112.80859375 76.6484375 C106.45021093 70.02073092 99.31780398 64.51118389 92 59 C91.4524707 58.58105469 90.90494141 58.16210938 90.34082031 57.73046875 C44.43203756 22.73647826 -14.63640558 8.22307658 -71.6875 15.1875 C-121.04665319 21.97319833 -165.42509568 44.3689861 -201 79 C-201.86496094 79.825 -202.72992188 80.65 -203.62109375 81.5 C-240.9828402 117.76096709 -262.48053767 170.59732645 -266 222 C-266.33 222 -266.66 222 -267 222 C-268.66305533 163.09372747 -245.3675895 107.89720137 -205.27441406 65.16064453 C-197.97085994 57.53612161 -190.42536861 50.38576733 -182 44 C-181.3611084 43.51176758 -180.7222168 43.02353516 -180.06396484 42.52050781 C-169.23279457 34.29271973 -158.11934648 27.17542888 -146 21 C-145.29520508 20.64067383 -144.59041016 20.28134766 -143.86425781 19.91113281 C-124.99292005 10.4185962 -105.6587829 4.31798236 -85 0 C-84.17999512 -0.18079102 -83.35999023 -0.36158203 -82.51513672 -0.54785156 C-56.85414484 -6.02757091 -25.5958949 -5.53025112 0 0 Z " fill="#455E94" transform="translate(299,35)"/>
<path d="M0 0 C0.33 0 0.66 0 1 0 C2.97367664 55.77463986 -21.94294733 109.41736526 -59 150 C-66.79644935 158.31047671 -74.90741637 166.10853611 -84 173 C-84.6388916 173.48823242 -85.2777832 173.97646484 -85.93603516 174.47949219 C-96.76720543 182.70728027 -107.88065352 189.82457112 -120 196 C-121.05719238 196.53898926 -121.05719238 196.53898926 -122.13574219 197.08886719 C-136.98810229 204.559804 -152.22356242 210.28451262 -168.375 214.25 C-169.78845703 214.60118896 -169.78845703 214.60118896 -171.23046875 214.95947266 C-188.85844383 219.07443672 -206.29328455 220.44830427 -224.34472656 220.40405273 C-226.49083304 220.4097732 -228.63693649 220.41674384 -230.78303528 220.42485046 C-236.54052176 220.44259632 -242.29785437 220.44165088 -248.05535984 220.43590808 C-252.87959832 220.43279398 -257.70380818 220.43893203 -262.52804255 220.44494683 C-273.90429928 220.45892461 -285.28048077 220.4574828 -296.65673828 220.44604492 C-308.37285125 220.43452545 -320.08873633 220.44871892 -331.80481935 220.4754414 C-341.89958369 220.49759918 -351.99427647 220.5042369 -362.08906341 220.49836498 C-368.10356231 220.49499986 -374.11791458 220.49738325 -380.13239288 220.51461601 C-385.77647141 220.53008794 -391.4202106 220.52612665 -397.06427574 220.50731087 C-399.1310361 220.50362806 -401.19782168 220.50672441 -403.26455879 220.51719666 C-406.09173999 220.53042685 -408.91780041 220.51884182 -411.74493408 220.50120544 C-412.96230047 220.51561295 -412.96230047 220.51561295 -414.20426011 220.53031152 C-423.32276132 220.41376054 -431.44712098 216.2598641 -438 210 C-444.60584612 202.01576867 -447.35190801 195.42313286 -447.125 185.125 C-447.11597656 184.34125 -447.10695313 183.5575 -447.09765625 182.75 C-447.07428063 180.83319945 -447.03841653 178.91655809 -447 177 C-445.26335138 179.60497292 -444.00497041 182.05123606 -442.6875 184.875 C-440.63041817 189.02535864 -438.56841193 191.96684986 -435 195 C-434.278125 195.680625 -433.55625 196.36125 -432.8125 197.0625 C-422.34904347 204.27065894 -411.59437637 203.570715 -399.37329102 203.51757812 C-397.2777152 203.52300449 -395.1821432 203.53013003 -393.08657837 203.53881836 C-387.40982325 203.55701238 -381.7333599 203.54999515 -376.05659986 203.53730202 C-370.08614174 203.52713134 -364.11570758 203.53658106 -358.14524841 203.54284668 C-348.10223956 203.55012085 -338.05934838 203.54055139 -328.01635742 203.52148438 C-316.47180034 203.49981698 -304.92752701 203.50669393 -293.38297707 203.52879 C-283.4265728 203.54707167 -273.47025295 203.54943755 -263.51383728 203.53903532 C-257.58803586 203.53285693 -251.66236664 203.53180419 -245.73657417 203.54518127 C-187.73097233 203.65795842 -132.58508119 194.25483055 -86 157 C-85.113125 156.30519531 -84.22625 155.61039063 -83.3125 154.89453125 C-72.81446243 146.51746348 -62.45753057 137.47209257 -54 127 C-53.10188749 125.92550952 -52.20341493 124.85131995 -51.3046875 123.77734375 C-43.75288304 114.65347583 -37.14004045 105.12252308 -31 95 C-30.57477051 94.30600098 -30.14954102 93.61200195 -29.71142578 92.89697266 C-12.46098592 64.42479338 -4.0335553 32.78753677 0 0 Z " fill="#000000" transform="translate(479,276)"/>
</svg>
